<?xml version="1.0" standalone="no"?>
<!DOCTYPE svg PUBLIC "-//W3C//DTD SVG 20010904//EN"
 "http://www.w3.org/TR/2001/REC-SVG-20010904/DTD/svg10.dtd">
<svg version="1.0" xmlns="http://www.w3.org/2000/svg"
 width="166.000000pt" height="166.000000pt" viewBox="0 0 166.000000 166.000000"
 preserveAspectRatio="xMidYMid meet">
<metadata>
Created by potrace 1.11, written by Peter Selinger 2001-2013
</metadata>
<g transform="translate(0.000000,166.000000) scale(0.100000,-0.100000)"
fill="#000000" stroke="none">
<path d="M853 1063 c1 -85 -16 -168 -32 -159 -4 3 -6 19 -3 36 5 32 -13 41
-36 18 -9 -9 -12 -9 -12 0 0 7 -4 12 -10 12 -5 0 -10 -7 -10 -15 0 -8 -4 -15
-9 -15 -5 0 -14 7 -21 15 -19 23 -49 18 -62 -11 -15 -32 0 -59 31 -58 20 1 21
-4 21 -72 0 -90 10 -118 52 -145 44 -27 118 -22 153 11 28 26 37 60 40 150 1
36 7 76 13 90 11 25 11 25 11 -7 l1 -33 51 3 c36 3 54 9 61 21 9 16 11 16 25
-3 18 -27 49 -27 63 -1 8 14 8 20 0 20 -6 0 -10 6 -9 13 5 40 -20 50 -51 22
-15 -14 -18 -14 -30 0 -22 26 -50 18 -66 -20 -8 -19 -17 -35 -20 -35 -3 0 -2
16 2 35 7 38 -9 47 -35 23 -8 -7 -4 1 8 18 29 39 25 80 -6 77 -19 -2 -21 2
-20 45 l2 47 -51 3 -51 3 0 -88z m123 -59 c-4 -14 -9 -24 -12 -21 -3 2 -2 17
2 31 3 15 9 25 11 22 3 -3 2 -17 -1 -32z m-276 -85 c0 -21 -16 -26 -23 -6 -6
17 3 38 14 31 5 -3 9 -14 9 -25z m370 0 c0 -21 -16 -26 -23 -6 -6 17 3 38 14
31 5 -3 9 -14 9 -25z m90 27 c0 -2 -7 -9 -15 -16 -13 -11 -14 -10 -9 4 5 14
24 23 24 12z m-374 -64 c-12 -11 -17 7 -9 34 l8 29 3 -28 c2 -16 1 -31 -2 -35z
m-46 18 c0 -11 -4 -20 -10 -20 -5 0 -10 9 -10 20 0 11 5 20 10 20 6 0 10 -9
10 -20z m425 10 c-3 -5 -11 -10 -16 -10 -6 0 -7 5 -4 10 3 6 11 10 16 10 6 0
7 -4 4 -10z m-310 -95 c-2 -57 -14 -83 -34 -71 -16 10 -14 133 2 139 23 8 34
-13 32 -68z"/>
<path d="M512 1029 c-38 -15 -16 -27 27 -16 30 8 43 8 55 -2 36 -30 4 -111
-43 -111 -17 0 -18 5 -10 47 5 25 7 49 4 51 -12 13 -28 -20 -33 -67 l-5 -51
31 0 c63 0 102 36 102 95 0 53 -64 80 -128 54z"/>
</g>
</svg>
